<svg width="16" height="16" viewBox="0 0 16 16" fill="none" xmlns="http://www.w3.org/2000/svg">
<path d="M7.99992 1.33334C4.32392 1.33334 1.33325 4.32401 1.33325 8.00001C1.33325 11.676 4.32392 14.6667 7.99992 14.6667C11.6759 14.6667 14.6666 11.676 14.6666 8.00001C14.6666 4.32401 11.6759 1.33334 7.99992 1.33334ZM7.99992 13.3333C5.05925 13.3333 2.66659 10.9407 2.66659 8.00001C2.66659 5.05934 5.05925 2.66668 7.99992 2.66668C10.9406 2.66668 13.3333 5.05934 13.3333 8.00001C13.3333 10.9407 10.9406 13.3333 7.99992 13.3333Z" fill="white"/>
<path d="M8.66659 4.66666H7.33325V8.27599L9.52859 10.4713L10.4713 9.52866L8.66659 7.72399V4.66666Z" fill="white"/>
</svg>
