<svg width="16" height="16" viewBox="0 0 16 16" fill="none" xmlns="http://www.w3.org/2000/svg">
<path d="M13.0887 5.33132C13.0974 5.44799 13.0974 5.56399 13.0974 5.67999C13.0974 9.22999 10.3954 13.3207 5.45737 13.3207C3.93604 13.3207 2.52271 12.88 1.33337 12.1147C1.54937 12.1393 1.75737 12.148 1.98204 12.148C3.23737 12.148 4.39271 11.724 5.31604 11.0007C4.13537 10.976 3.14604 10.2027 2.80471 9.13865C2.97071 9.16332 3.13737 9.17999 3.31204 9.17999C3.55271 9.17999 3.79471 9.14665 4.01937 9.08865C2.78804 8.83932 1.86604 7.75865 1.86604 6.45332V6.41999C2.22404 6.61932 2.63937 6.74399 3.07937 6.76065C2.35604 6.27932 1.88204 5.45599 1.88204 4.52465C1.88204 4.02599 2.01471 3.56865 2.24737 3.16999C3.56937 4.79865 5.55671 5.86332 7.78471 5.97999C7.74337 5.77999 7.71804 5.57265 7.71804 5.36465C7.71804 3.88465 8.91537 2.67932 10.4034 2.67932C11.1767 2.67932 11.8747 3.00332 12.3654 3.52732C12.972 3.41065 13.5534 3.18599 14.0694 2.87865C13.87 3.50199 13.4454 4.02599 12.8887 4.35865C13.4294 4.29999 13.9534 4.15065 14.4347 3.94265C14.0694 4.47465 13.6127 4.94865 13.0887 5.33132Z" fill="white"/>
</svg>
