<svg width="16" height="16" viewBox="0 0 16 16" fill="none" xmlns="http://www.w3.org/2000/svg">
<path d="M5.64335 7.52868C6.39868 6.77334 7.71601 6.77334 8.47135 7.52868L8.94268 8.00001L9.88535 7.05735L9.41401 6.58601C8.78535 5.95668 7.94801 5.60934 7.05735 5.60934C6.16668 5.60934 5.32935 5.95668 4.70068 6.58601L3.28601 8.00001C1.98735 9.29934 1.98735 11.4147 3.28601 12.714C3.93601 13.364 4.78935 13.6887 5.64268 13.6887C6.49668 13.6887 7.35068 13.364 8.00001 12.714L8.47135 12.2427L7.52868 11.3L7.05735 11.7713C6.27735 12.5493 5.00868 12.5507 4.22868 11.7713C3.44935 10.9913 3.44935 9.72268 4.22868 8.94268L5.64335 7.52868Z" fill="white"/>
<path d="M8.00008 3.286L7.52875 3.75733L8.47141 4.7L8.94275 4.22867C9.72208 3.45067 10.9907 3.44933 11.7714 4.22867C12.5507 5.00867 12.5507 6.27733 11.7714 7.05733L10.3567 8.47133C9.60141 9.22667 8.28408 9.22667 7.52875 8.47133L7.05741 8L6.11475 8.94267L6.58608 9.414C7.21475 10.0433 8.05208 10.3907 8.94275 10.3907C9.83341 10.3907 10.6707 10.0433 11.2994 9.414L12.7141 8C14.0127 6.70067 14.0127 4.58533 12.7141 3.286C11.4141 1.986 9.29875 1.98667 8.00008 3.286Z" fill="white"/>
</svg>
