<svg width="24" height="24" viewBox="0 0 24 24" fill="none" xmlns="http://www.w3.org/2000/svg">
<path d="M10 18C11.846 18 13.543 17.365 14.897 16.312L19.293 20.708L20.707 19.294L16.311 14.898C17.365 13.543 18 11.846 18 10C18 5.589 14.411 2 10 2C5.589 2 2 5.589 2 10C2 14.411 5.589 18 10 18ZM10 4C13.309 4 16 6.691 16 10C16 13.309 13.309 16 10 16C6.691 16 4 13.309 4 10C4 6.691 6.691 4 10 4Z" fill="#606062"/>
<path d="M11.412 8.586C11.791 8.966 12 9.468 12 10H14C14 8.935 13.584 7.931 12.826 7.172C11.312 5.66 8.68695 5.66 7.17395 7.172L8.58595 8.588C9.34595 7.83 10.656 7.832 11.412 8.586Z" fill="#606062"/>
</svg>
