<svg width="16" height="16" viewBox="0 0 16 16" fill="none" xmlns="http://www.w3.org/2000/svg">
<path d="M8 6C6.90533 6 6 6.906 6 8C6 9.09467 6.90533 10 8 10C9.094 10 10 9.09467 10 8C10 6.906 9.094 6 8 6Z" fill="white"/>
<path d="M8.00003 3.33334C2.91136 3.33334 1.38203 7.74468 1.36803 7.78934L1.29736 8.00001L1.36736 8.21068C1.38203 8.25534 2.91136 12.6667 8.00003 12.6667C13.0887 12.6667 14.618 8.25534 14.632 8.21068L14.7027 8.00001L14.6327 7.78934C14.618 7.74468 13.0887 3.33334 8.00003 3.33334ZM8.00003 11.3333C4.4327 11.3333 3.0507 8.76934 2.71603 8.00001C3.05203 7.22801 4.4347 4.66668 8.00003 4.66668C11.5674 4.66668 12.9494 7.23068 13.284 8.00001C12.948 8.77201 11.5654 11.3333 8.00003 11.3333Z" fill="white"/>
</svg>
