<svg width="18" height="18" viewBox="0 0 18 18" fill="none" xmlns="http://www.w3.org/2000/svg">
<path d="M15.7103 6.22875C15.7021 5.661 15.5971 5.09775 15.3961 4.56675C15.0443 3.66 14.3281 2.943 13.4213 2.592C12.8971 2.39475 12.3428 2.289 11.7818 2.277C11.0603 2.24475 10.8316 2.23575 9.00005 2.23575C7.16855 2.23575 6.9338 2.23575 6.21755 2.277C5.6573 2.289 5.10305 2.39475 4.5788 2.592C3.67205 2.943 2.95505 3.66 2.60405 4.56675C2.4068 5.091 2.3003 5.64525 2.2898 6.2055C2.25755 6.92775 2.2478 7.1565 2.2478 8.988C2.2478 10.8195 2.2478 11.0535 2.2898 11.7705C2.30105 12.3315 2.4068 12.885 2.60405 13.4107C2.9558 14.3167 3.67205 15.0337 4.57955 15.3847C5.10155 15.5887 5.6558 15.7042 6.2183 15.7222C6.94055 15.7545 7.1693 15.7642 9.0008 15.7642C10.8323 15.7642 11.0671 15.7642 11.7833 15.7222C12.3436 15.711 12.8978 15.6052 13.4228 15.408C14.3296 15.0562 15.0458 14.3392 15.3976 13.4332C15.5948 12.9082 15.7006 12.3547 15.7118 11.793C15.7441 11.0715 15.7538 10.8427 15.7538 9.0105C15.7523 7.179 15.7523 6.9465 15.7103 6.22875ZM8.99555 12.4515C7.08005 12.4515 5.5283 10.8997 5.5283 8.98425C5.5283 7.06875 7.08005 5.517 8.99555 5.517C10.9096 5.517 12.4628 7.06875 12.4628 8.98425C12.4628 10.8997 10.9096 12.4515 8.99555 12.4515ZM12.6008 6.19725C12.1531 6.19725 11.7923 5.83575 11.7923 5.38875C11.7923 4.94175 12.1531 4.58025 12.6008 4.58025C13.0471 4.58025 13.4086 4.94175 13.4086 5.38875C13.4086 5.83575 13.0471 6.19725 12.6008 6.19725Z" fill="white"/>
<path d="M8.99554 11.2365C10.2394 11.2365 11.2478 10.2281 11.2478 8.98425C11.2478 7.74037 10.2394 6.732 8.99554 6.732C7.75165 6.732 6.74329 7.74037 6.74329 8.98425C6.74329 10.2281 7.75165 11.2365 8.99554 11.2365Z" fill="white"/>
</svg>
